General
      Complete name : The.Maltese.Falcon.1941.BRRip.H264.AAC.Gopo.mp4
      Format : MPEG-4
      Format profile : Base Media
      Codec ID : isom
      File size : 1.46 GiB
      Duration : 1h 40mn
      Overall bit rate : 2 084 Kbps
      Encoded date : UTC 2010-12-21 14:04:53
      Tagged date : UTC 2010-12-21 14:04:53
   Video #1
      ID : 1
      Format : AVC
      Format/Info : Advanced Video Codec
      Format profile : High@L4.1
      Format settings, CABAC : Yes
      Format settings, ReFrames : 3 frames
      Codec ID : avc1
      Codec ID/Info : Advanced Video Coding
      Duration : 1h 40mn
      Bit rate mode : Variable
      Bit rate : 1 878 Kbps
      Maximum bit rate : 5 858 Kbps
      Width : 1 280 pixels
      Height : 928 pixels
      Display aspect ratio : 1.379
      Frame rate mode : Constant
      Frame rate : 23.976 fps
      Resolution : 24 bits
      Colorimetry : 4:2:0
      Scan type : Progressive
      Bits/(Pixel*Frame) : 0.066
      Stream size : 1.32 GiB (90%)
      Writing library : x264 core 112 r1834 a51816a
      Encoding settings : cabac=1 / ref=4 / deblock=1:0:0 / analyse=0x3:0x113 / me=hex / subme=7 / psy=1 / psy_rd=1.00:0.00 / mixed_ref=1 / me_range=16 / chroma_me=1 / trellis=1 / 8x8dct=1 / cqm=0 / deadzone=21,11 / fast_pskip=1 / chroma_qp_offset=-2 / threads=3 / sliced_threads=0 / slices=4 / nr=0 / decimate=1 / interlaced=0 / constrained_intra=0 / bframes=3 / b_pyramid=1 / b_adapt=1 / b_bias=0 / direct=1 / weightb=1 / open_gop=0 / weightp=0 / keyint=24 / keyint_min=2 / scenecut=40 / intra_refresh=0 / rc_lookahead=24 / rc=2pass / mbtree=1 / bitrate=1878 / ratetol=1.0 / qcomp=0.60 / qpmin=0 / qpmax=51 / qpstep=4 / cplxblur=20.0 / qblur=0.5 / vbv_maxrate=40000 / vbv_bufsize=30000 / ip_ratio=1.40 / aq=1:1.00 / nal_hrd=vbr
      Encoded date : UTC 2010-12-22 00:30:50
      Tagged date : UTC 2010-12-21 14:07:55
      colour_primaries : BT.709-5, BT.1361, IEC 61966-2-4, SMPTE RP177
      transfer_characteristics : BT.709-5, BT.1361
      matrix_coefficients : BT.709-5, BT.1361, IEC 61966-2-4 709, SMPTE RP177
   Audio #2
      ID : 2
      Format : AAC
      Format/Info : Advanced Audio Codec
      Format version : Version 4
      Format profile : LC
      Format settings, SBR : No
      Format settings, PS : Yes
      Codec ID : 40
      Duration : 1h 40mn
      Bit rate mode : Variable
      Bit rate : 203 Kbps
      Maximum bit rate : 241 Kbps
      Channel(s) : 2 channels
      Channel positions : Front: L R
      Sampling rate : 48.0 KHz
      Resolution : 16 bits
      Stream size : 146 MiB (10%)
      Encoded date : UTC 2010-12-21 14:07:08
      Tagged date : UTC 2010-12-21 14:07:55
	Sample : YES
	Subtitle : English,Romanian

PLOT
A private detective takes on a case that involves him with three eccentric criminals, a gorgeous liar, and their quest for a priceless statuette.
Director: John Huston
CASTING 

      Humphrey Bogart 	... 	Samuel Spade 
 	Mary Astor 	... 	Brigid O'Shaughnessy 
 	Gladys George 	... 	Iva Archer 
 	Peter Lorre 	... 	Joel Cairo 
 	Barton MacLane 	... 	Lt. of Detectives Dundy 
 	Lee Patrick 	... 	Effie Perine 
 	Sydney Greenstreet 	... 	Kasper Gutman 
 	Ward Bond 	... 	Detective Tom Polhaus 
 	Jerome Cowan 	... 	Miles Archer 
 	Elisha Cook Jr. 	... 	Wilmer Cook 
 	James Burke 	... 	Luke 
 	Murray Alper 	... 	Frank Richman 
 	John Hamilton 	... 	Bryan

SOURCE: The Maltese Falcon 1941 1080p BluRay x264 Japhson.mkv

Notes: For best performance I suggest you to use KMPlayer(find it with google) for playback
These movies were made especially for PC and they don't play on a PS3.If you want to re-encode for PS3 or test for other devices be my guests.
I'll ask everybody to stop with the ''it doesn't work'',''it's out of sync'' comments because I tested the movies before I uploaded them and they work fine.